# xmcd
# 
# Track frame offsets:
#     150
#     15377
#     28865
#     42409
#     55822
#     68877
#     81111
#     96134
#     106386
#     116644
#     126686
#     135315
#     150135
#     161047
#     172356
#     183060
#     194582
#     207834
# 
# Disc length: 2936
# 
# Revision: 0
# Processed by: cddbd v1.5.2PL0 Copyright (c) Steve Scherf et al.
# Submitted via: fre:ac v1.0.17
# 
DISCID=f70b7612
DTITLE=Various Artist - Country Masterpieces
DYEAR=1996
DGENRE=Country
TTITLE0=Don Gibson - I can't stop loving you
TTITLE1=George Jones - Almost persuaded
TTITLE2=Kenny Rogers - Ruby don't take your love to town
TTITLE3=Don Williams - Where do we go from here?
TTITLE4=Willie Nelson - The shelter of your arms
TTITLE5=Jim Reeves - Four walls
TTITLE6=Texas Tyler - Deck of cards
TTITLE7=Freddy Fender - But i do
TTITLE8=Carl Perkins - Daddy sang bass
TTITLE9=George Jones - Why baby why
TTITLE10=Waylon Jennings - Love's gonna live here
TTITLE11=Freedy Fender - Wasted days and wasted nights
TTITLE12=Stonewall Jackson - Things to talk about
TTITLE13=Hanl Locklin - Send me the pillow you dream on
TTITLE14=Don Gibson - Sea of heartbreak
TTITLE15=George Jones - Talk back trembling lips
TTITLE16=Kenny Rogers - Reuben James
TTITLE17=John Davis Band - Blue blue day
EXTD=
EXTT0=
EXTT1=
EXTT2=
EXTT3=
EXTT4=
EXTT5=
EXTT6=
EXTT7=
EXTT8=
EXTT9=
EXTT10=
EXTT11=
EXTT12=
EXTT13=
EXTT14=
EXTT15=
EXTT16=
EXTT17=
PLAYORDER=
